<?xml version="1.0" encoding="UTF-8" standalone="no"?>
<!-- Created with Inkscape (http://www.inkscape.org/) -->

<svg
   xmlns:dc="http://purl.org/dc/elements/1.1/"
   xmlns:cc="http://creativecommons.org/ns#"
   xmlns:rdf="http://www.w3.org/1999/02/22-rdf-syntax-ns#"
   xmlns:svg="http://www.w3.org/2000/svg"
   xmlns="http://www.w3.org/2000/svg"
   xmlns:sodipodi="http://sodipodi.sourceforge.net/DTD/sodipodi-0.dtd"
   xmlns:inkscape="http://www.inkscape.org/namespaces/inkscape"
   width="111.37404mm"
   height="86.01104mm"
   viewBox="0 0 111.37404 86.01104"
   version="1.1"
   id="svg8"
   inkscape:version="0.92.3 (2405546, 2018-03-11)"
   sodipodi:docname="chef_logo_v2.svg">
  <defs
     id="defs2">
    <inkscape:path-effect
       effect="skeletal"
       id="path-effect3883"
       is_visible="true"
       pattern="m 28.865109,69.679226 c 0,-2.76 2.24,-5 5,-5 2.76,0 5,2.24 5,5 0,2.76 -2.24,5 -5,5 -2.76,0 -5,-2.24 -5,-5 z"
       copytype="single_stretched"
       prop_scale="0.26458333"
       scale_y_rel="false"
       spacing="0"
       normal_offset="0"
       tang_offset="0"
       prop_units="false"
       vertical_pattern="false"
       fuse_tolerance="0" />
    <inkscape:path-effect
       effect="spiro"
       id="path-effect3881"
       is_visible="true" />
    <inkscape:path-effect
       effect="skeletal"
       id="path-effect3871"
       is_visible="true"
       pattern="m 28.998744,69.679226 c 0,-2.76 2.24,-5 5,-5 2.76,0 5,2.24 5,5 0,2.76 -2.24,5 -5,5 -2.76,0 -5,-2.24 -5,-5 z"
       copytype="single_stretched"
       prop_scale="0.26458333"
       scale_y_rel="false"
       spacing="0"
       normal_offset="0"
       tang_offset="0"
       prop_units="false"
       vertical_pattern="false"
       fuse_tolerance="0" />
    <inkscape:path-effect
       effect="spiro"
       id="path-effect3869"
       is_visible="true" />
    <inkscape:path-effect
       effect="skeletal"
       id="path-effect3857"
       is_visible="true"
       pattern="m 28.33057,71.015573 c 0,-2.76 2.24,-5 5,-5 2.76,0 5,2.24 5,5 0,2.76 -2.24,5.000001 -5,5.000001 -2.76,0 -5,-2.240001 -5,-5.000001 z"
       copytype="single_stretched"
       prop_scale="0.26458333"
       scale_y_rel="false"
       spacing="0"
       normal_offset="0"
       tang_offset="0"
       prop_units="false"
       vertical_pattern="false"
       fuse_tolerance="0" />
    <inkscape:path-effect
       effect="spiro"
       id="path-effect3855"
       is_visible="true" />
    <inkscape:path-effect
       effect="skeletal"
       id="path-effect3851"
       is_visible="true"
       pattern="m 28.865109,69.679226 c 0,-2.76 2.24,-5 5,-5 2.76,0 5,2.24 5,5 0,2.76 -2.24,5 -5,5 -2.76,0 -5,-2.24 -5,-5 z"
       copytype="single_stretched"
       prop_scale="0.26458333"
       scale_y_rel="false"
       spacing="0"
       normal_offset="0"
       tang_offset="0"
       prop_units="false"
       vertical_pattern="false"
       fuse_tolerance="0" />
    <inkscape:path-effect
       effect="spiro"
       id="path-effect3849"
       is_visible="true" />
    <inkscape:path-effect
       effect="skeletal"
       id="path-effect3845"
       is_visible="true"
       pattern="m 28.865109,69.679226 c 0,-2.76 2.24,-5 5,-5 2.76,0 5,2.24 5,5 0,2.76 -2.24,5 -5,5 -2.76,0 -5,-2.24 -5,-5 z"
       copytype="single_stretched"
       prop_scale="0.26458333"
       scale_y_rel="false"
       spacing="0"
       normal_offset="0"
       tang_offset="0"
       prop_units="false"
       vertical_pattern="false"
       fuse_tolerance="0" />
    <inkscape:path-effect
       effect="skeletal"
       id="path-effect3789"
       is_visible="true"
       pattern="m 29.666918,69.011052 c 0,-2.76 2.24,-5 5,-5 2.76,0 5,2.24 5,5 0,2.76 -2.24,5 -5,5 -2.76,0 -5,-2.24 -5,-5 z"
       copytype="single_stretched"
       prop_scale="0.26458333"
       scale_y_rel="false"
       spacing="0"
       normal_offset="0"
       tang_offset="0"
       prop_units="false"
       vertical_pattern="false"
       fuse_tolerance="0" />
    <inkscape:path-effect
       effect="spiro"
       id="path-effect3787"
       is_visible="true" />
    <inkscape:path-effect
       effect="skeletal"
       id="path-effect4439"
       is_visible="true"
       pattern="m 28.865109,69.679226 c 0,-2.76 2.24,-5 5,-5 2.76,0 5,2.24 5,5 0,2.76 -2.24,5 -5,5 -2.76,0 -5,-2.24 -5,-5 z"
       copytype="single_stretched"
       prop_scale="0.26458333"
       scale_y_rel="false"
       spacing="0"
       normal_offset="0"
       tang_offset="0"
       prop_units="false"
       vertical_pattern="false"
       fuse_tolerance="0" />
    <inkscape:path-effect
       effect="spiro"
       id="path-effect4437"
       is_visible="true" />
    <inkscape:path-effect
       effect="skeletal"
       id="path-effect4433"
       is_visible="true"
       pattern="m 28.865109,69.679226 c 0,-2.76 2.24,-5 5,-5 2.76,0 5,2.24 5,5 0,2.76 -2.24,5 -5,5 -2.76,0 -5,-2.24 -5,-5 z"
       copytype="single_stretched"
       prop_scale="0.26458333"
       scale_y_rel="false"
       spacing="0"
       normal_offset="0"
       tang_offset="0"
       prop_units="false"
       vertical_pattern="false"
       fuse_tolerance="0" />
    <inkscape:path-effect
       effect="spiro"
       id="path-effect4431"
       is_visible="true" />
    <inkscape:path-effect
       effect="skeletal"
       id="path-effect4421"
       is_visible="true"
       pattern="m 28.865109,69.679226 c 0,-2.76 2.24,-5 5,-5 2.76,0 5,2.24 5,5 0,2.76 -2.24,5 -5,5 -2.76,0 -5,-2.24 -5,-5 z"
       copytype="single_stretched"
       prop_scale="0.26458333"
       scale_y_rel="false"
       spacing="0"
       normal_offset="0"
       tang_offset="0"
       prop_units="false"
       vertical_pattern="false"
       fuse_tolerance="0" />
    <inkscape:path-effect
       effect="spiro"
       id="path-effect4419"
       is_visible="true" />
  </defs>
  <sodipodi:namedview
     id="base"
     pagecolor="#ffffff"
     bordercolor="#666666"
     borderopacity="1.0"
     inkscape:pageopacity="0.0"
     inkscape:pageshadow="2"
     inkscape:zoom="0.9899495"
     inkscape:cx="289.26582"
     inkscape:cy="56.995922"
     inkscape:document-units="mm"
     inkscape:current-layer="layer1"
     showgrid="false"
     inkscape:window-width="1920"
     inkscape:window-height="1005"
     inkscape:window-x="-9"
     inkscape:window-y="-9"
     inkscape:window-maximized="1" />
  <metadata
     id="metadata5">
    <rdf:RDF>
      <cc:Work
         rdf:about="">
        <dc:format>image/svg+xml</dc:format>
        <dc:type
           rdf:resource="http://purl.org/dc/dcmitype/StillImage" />
        <dc:title />
      </cc:Work>
    </rdf:RDF>
  </metadata>
  <g
     inkscape:label="Layer 1"
     inkscape:groupmode="layer"
     id="layer1"
     transform="translate(-43.848545,-94.617633)">
    <path
       id="path3840"
       style="fill:#000000;stroke-width:0.26458332"
       d="m 128.69932,138.43596 c -0.2981,0.18508 -0.59413,0.37343 -0.88521,0.56948 -0.39798,0.30367 -0.79778,0.60472 -1.19683,0.90692 0.20531,-0.10726 0.51174,-0.26585 0.70487,-0.36691 0.4831,-0.36147 0.96383,-0.72615 1.45159,-1.08055 -0.0249,-0.01 -0.0495,-0.0195 -0.0744,-0.0289 z"
       inkscape:connector-curvature="0" />
    <path
       style="fill:#000000;stroke:none;stroke-width:0.26458332px;stroke-linecap:butt;stroke-linejoin:miter;stroke-opacity:1"
       d="m 63.638918,180.62863 c -0.186335,0.0204 -1.662,-6.70195 -1.597314,-18.16446 0.008,-2.08015 0.09774,-4.59907 -0.283411,-6.81078 -0.360023,-2.02375 -1.127165,-4.19671 -2.652679,-5.64767 -1.009415,-1.01274 -2.382841,-1.70309 -3.923657,-2.40405 -1.431692,-0.63078 -3.109446,-1.28904 -4.660506,-2.28419 -2.335159,-1.5255 -4.225007,-3.80702 -5.363968,-6.51378 -1.075917,-2.55926 -1.490736,-5.42046 -1.236175,-8.28518 0.503141,-5.41084 3.195551,-10.4886 7.025762,-14.65703 1.359855,-1.49433 2.856643,-2.88827 4.4745,-4.15929 4.215852,-3.31205 9.019742,-5.60878 13.957754,-6.7971 5.514985,-1.33283 11.107791,-1.23304 16.115141,0.28517 5.636056,1.71014 10.208348,5.20527 13.04918,9.44177 3.367135,5.07681 4.178495,10.86037 3.997155,15.37232 -0.28185,7.0981 -2.915377,13.21055 -3.84923,15.20152 -0.568928,1.21419 -0.94383,1.82071 -1.034698,1.78288 -0.09863,-0.0411 0.09147,-0.72429 0.47721,-1.9969 0.58344,-1.92771 2.776288,-8.46443 2.747878,-15.01777 -0.0209,-4.2696 -0.949585,-9.66174 -4.111855,-14.12863 -2.62618,-3.7542 -6.849709,-6.82294 -11.972109,-8.316 -4.563253,-1.33134 -9.704691,-1.35135 -14.804048,-0.0999 -4.5641,1.12515 -9.021026,3.27769 -12.937353,6.354 -1.503178,1.18076 -2.895194,2.47332 -4.160153,3.85627 -3.512829,3.88091 -6.016274,8.41224 -6.438892,13.11096 -0.234864,2.47992 0.08245,4.9457 0.969713,7.10947 0.934299,2.28111 2.481487,4.23253 4.382892,5.5081 1.250041,0.85675 2.821367,1.49535 4.302972,2.19641 1.614921,0.74167 3.194564,1.62689 4.499772,2.94273 1.895136,1.99049 2.758547,4.55257 3.054527,6.85648 0.333181,2.50196 0.155157,5.08889 0.057,7.14341 -0.518186,11.2702 0.232318,18.0865 -0.08541,18.12126 z"
       id="path4417"
       inkscape:connector-curvature="0"
       inkscape:path-effect="#path-effect4419;#path-effect4421"
       inkscape:original-d="m 63.638918,180.62863 c -0.25172,-6.04788 -0.503703,-12.0955 -0.755952,-18.14286 -0.252248,-6.04735 -2.015609,-8.81971 -3.023809,-13.22917 -1.008203,-4.40945 -5.795371,-3.27605 -8.693453,-4.91369 -2.898082,-1.63763 0.504233,-18.3951 0.755952,-27.59226 0.25172,-9.19715 11.843518,-7.05582 17.76488,-10.58333 5.921364,-3.52751 18.64709,6.04735 27.970239,9.07143 9.323145,3.02407 0.504232,19.90648 0.755951,29.86012 0.25172,9.95363 -0.503703,1.25965 -0.755951,1.88988" />
    <path
       style="fill:#000000;stroke:none;stroke-width:0.26458332px;stroke-linecap:butt;stroke-linejoin:miter;stroke-opacity:1"
       d="m 82.915702,106.5453 c 0.0935,0.0905 3.856429,-6.956076 15.584493,-10.490716 4.432695,-1.338062 9.849465,-1.972187 15.530265,-0.882568 3.38774,0.650461 6.81295,1.928753 9.96039,3.90723 1.45833,0.916707 2.81101,1.955194 4.04157,3.099484 3.80022,3.54201 6.25179,7.93766 7.43202,12.28592 1.45883,5.38275 0.94099,10.42084 -0.28628,14.24885 0,0 0,0 0,0 -2.36547,7.36949 -6.49748,9.70516 -6.47884,9.72246 -0.25191,-0.23377 3.08894,-3.50832 4.76346,-10.21363 0,-1e-5 0,-1e-5 0,-1e-5 0.90515,-3.61905 1.15769,-8.25962 -0.30266,-13.09966 -1.17733,-3.90796 -3.47526,-7.85163 -6.9147,-11.01437 -1.1126,-1.02574 -2.33797,-1.96023 -3.66071,-2.7903 -2.85317,-1.790454 -5.97207,-2.979038 -9.05857,-3.622367 -5.17922,-1.080581 -10.23601,-0.631356 -14.444931,0.441575 -10.612084,2.710492 -15.844704,8.718582 -16.165507,8.408102 z"
       id="path4429"
       inkscape:connector-curvature="0"
       inkscape:path-effect="#path-effect4431;#path-effect4433"
       inkscape:original-d="m 82.915702,106.5453 c 5.291932,-3.15007 10.583598,-6.29987 15.875,-9.449409 5.291398,-3.149537 18.899078,4.031479 28.348218,6.047619 9.44914,2.01614 4.78796,16.88267 7.18155,25.3244 2.39358,8.44174 -3.74717,6.6451 -5.62115,9.96805" />
    <path
       style="fill:#000000;stroke:none;stroke-width:0.26458332px;stroke-linecap:butt;stroke-linejoin:miter;stroke-opacity:1"
       d="m 133.56451,111.45899 c -0.0192,0.28824 5.60611,-1.55864 13.06469,4.18823 0,0 0,0 0,0 3.02328,2.3303 6.01032,5.93999 7.55472,10.7324 1.27991,3.97956 1.4831,8.68006 0.008,13.24515 -0.79389,2.45088 -2.06526,4.80577 -3.77686,6.88368 -1.21058,1.46966 -2.60171,2.7522 -4.12371,3.81208 -3.93678,2.73625 -8.55904,3.85196 -12.79937,3.55574 -0.26985,-0.0117 -0.44112,-0.0381 -0.51556,-0.0189 -0.0986,0.001 -0.22905,0.0638 -0.35765,0.14805 -0.13343,0.0887 -0.26023,0.23952 -0.38096,0.41707 0,0 0,0 0,0 -0.25694,0.35872 -0.39854,0.91854 -0.57857,1.53962 -3.6019,13.45913 -3.26993,23.14455 -3.76451,23.15461 -0.26072,0.005 -1.76465,-9.61225 1.52715,-23.71447 0.13875,-0.65283 0.34797,-1.43104 0.8015,-2.22339 0,0 0,0 0,0 0.22901,-0.38897 0.54228,-0.76088 0.94623,-1.08057 0.4017,-0.31867 0.90106,-0.54656 1.47081,-0.63892 0.42441,-0.0507 0.75873,-0.0373 0.99634,-0.0189 3.69986,0.17579 7.74835,-0.8778 11.14755,-3.27402 1.31782,-0.92695 2.5287,-2.05213 3.58797,-3.33972 1.49737,-1.82013 2.62459,-3.88238 3.33799,-6.01763 1.33249,-3.97693 1.23228,-8.16376 0.19349,-11.72882 -1.25056,-4.30208 -3.81671,-7.69455 -6.45764,-9.98218 0,0 0,0 0,0 -6.08191,-5.27035 -11.90605,-5.27447 -11.88175,-5.63915 z"
       id="path4435"
       inkscape:connector-curvature="0"
       inkscape:path-effect="#path-effect4437;#path-effect4439"
       inkscape:original-d="m 133.56451,111.45899 c 4.15801,1.63763 8.31574,3.27553 12.47322,4.91369 4.15747,1.63816 -8.31521,24.19021 -12.47322,36.28571 -4.158,12.09551 -0.5037,-2.6e-4 -0.75595,0 -0.25225,2.6e-4 -1.51164,2.01561 -2.26786,3.02381 -0.75621,1.0082 -1.76362,15.62276 -2.64583,23.43453" />
    <path
       style="fill:#000000;stroke-width:0.26458332"
       id="path4477"
       d="m 66.115301,176.53339 c 1.792608,-0.35756 3.622122,-0.42994 5.435672,-0.61867 2.678916,-0.18919 5.345276,-0.51402 8.011583,-0.83026 3.377544,-0.49819 6.78071,-0.79112 10.169948,-1.19748 3.218185,-0.38448 6.459413,-0.4522 9.690163,-0.6568 3.049543,-0.30228 6.107253,-0.5002 9.159923,-0.76657 2.34441,-0.18224 4.69269,-0.30099 7.04306,-0.3664 1.21405,-0.0244 2.42836,-0.0357 3.64265,-0.0329 0.97079,0.003 1.94159,0.003 2.91239,0.002 1.22912,-0.0314 2.44974,0.0276 3.67278,0.14089 1.36757,0.13127 2.73989,0.19342 4.11288,0.2268 0.93965,-0.0553 1.84245,0.0541 2.76098,0.22463 0.11345,0.0172 0.2269,0.0344 0.34034,0.0516 0,0 -4.9089,3.44593 -4.9089,3.44593 v 0 c -0.11513,-0.0203 -0.23027,-0.0406 -0.34541,-0.0609 -0.88782,-0.15848 -1.77974,-0.16125 -2.68024,-0.17193 -1.37379,-0.0492 -2.74511,-0.14311 -4.11436,-0.26496 -1.22609,-0.092 -2.44994,-0.0937 -3.67893,-0.0756 -0.96899,-0.003 -1.93797,-0.006 -2.90696,-0.006 -1.19736,-2.7e-4 -2.39484,-0.0104 -3.59206,0.0147 -2.3198,0.0473 -4.63877,0.14962 -6.95135,0.34303 -3.0565,0.25079 -6.115311,0.46907 -9.168954,0.75422 -3.22004,0.17155 -6.447597,0.26419 -9.650471,0.66968 -3.391368,0.3875 -6.79247,0.69731 -10.169744,1.1998 -2.69017,0.32944 -5.380072,0.65807 -8.082661,0.86855 -1.84173,0.17805 -3.685051,0.33381 -5.5068,0.67119 0,0 4.804471,-3.56435 4.804471,-3.56435 z"
       inkscape:connector-curvature="0" />
    <path
       style="fill:#ff0000;stroke:none;stroke-width:0.26458332px;stroke-linecap:butt;stroke-linejoin:miter;stroke-opacity:1"
       d="m 90.604369,164.43431 c 0.03643,0.0136 0.528255,1.86044 -1.97925,3.56572 0,0 -10e-7,0 -10e-7,0 -1.194988,0.80452 -3.013465,1.34001 -5.020703,0.84062 -1.602607,-0.40482 -3.173761,-1.43948 -4.203348,-3.06846 -0.560143,-0.89209 -0.934366,-1.91287 -1.081181,-2.99507 -0.09551,-0.70404 -0.09134,-1.40956 0.0056,-2.09396 0.267198,-1.85652 1.164696,-3.43641 2.314494,-4.56653 0.880877,-0.87397 1.907581,-1.47041 2.945143,-1.79499 1.276603,-0.39899 2.49096,-0.32822 3.445482,-0.0318 0,0 1e-6,0 1e-6,0 2.437032,0.7698 2.558819,2.34808 2.504663,2.39365 -0.232627,0.19575 -1.187088,-0.69285 -2.84073,-0.81359 0,0 0,0 0,0 -0.709168,-0.0572 -1.540004,0.0599 -2.374647,0.44102 -0.681643,0.31045 -1.343273,0.80924 -1.925508,1.47398 -0.742822,0.85982 -1.320852,2.00798 -1.463032,3.24323 -0.05371,0.4537 -0.05062,0.9252 0.01235,1.39461 0.09676,0.7213 0.329917,1.4026 0.676449,1.98381 0.6247,1.05912 1.623176,1.83153 2.634879,2.18151 1.265008,0.44598 2.575106,0.28887 3.517714,-0.1068 0,0 0,0 0,0 1.818358,-0.74984 2.51935,-2.16373 2.831599,-2.04696 z"
       id="path3785"
       inkscape:connector-curvature="0"
       inkscape:path-effect="#path-effect3787;#path-effect3789"
       inkscape:original-d="m 90.604369,164.43431 c -0.801544,0.93519 -0.178442,6.23656 -2.405425,2.80634 -2.226982,-3.43023 -8.463801,-9.66599 -6.681739,-10.28988 1.782061,-0.6239 3.563858,-1.24753 5.34539,-1.87089 1.781532,-0.62336 1.782063,1.06881 2.672697,1.60362" />
    <path
       style="fill:#ff0000;stroke:none;stroke-width:0.26458332px;stroke-linecap:butt;stroke-linejoin:miter;stroke-opacity:1"
       d="m 93.277063,168.44336 c -0.728913,-0.0442 -1.140843,-3.04426 -0.919488,-6.69662 0.216087,-3.56543 0.956185,-6.44093 1.669387,-6.5347 0,0 2e-6,0 2e-6,0 0,0 0,0 0,0 0,0 10e-7,0 10e-7,0 0.06487,0.001 0.05191,0.001 0.05191,0.001 0,0 -0.01286,-0.002 0.05171,0.005 0,0 10e-7,0 10e-7,0 0,0 0,0 0,0 1e-6,0 1e-6,0 1e-6,0 0.696658,0.17921 1.084069,3.12305 0.867982,6.68848 -0.221356,3.65236 -0.992587,6.58074 -1.7215,6.53656 z"
       id="path3843"
       inkscape:connector-curvature="0"
       inkscape:path-effect="#path-effect3845"
       inkscape:original-d="m 93.277063,168.44336 c 0.80181,-13.22985 0.80181,-13.22985 0.80181,-13.22985" />
    <path
       style="fill:#ff0000;stroke:none;stroke-width:0.26458332px;stroke-linecap:butt;stroke-linejoin:miter;stroke-opacity:1"
       d="m 93.677968,162.02889 c -0.22016,-0.0327 -0.636054,-0.62646 -0.128583,-1.6741 0,0 0,0 0,0 0.217125,-0.44655 0.611453,-0.93323 1.227923,-1.2834 0.500159,-0.28286 1.123163,-0.46179 1.817213,-0.43539 0.616206,0.0247 1.253459,0.21038 1.831614,0.5876 0.495306,0.34654 0.90698,0.78266 1.21696,1.28134 0.316436,0.50907 0.506395,1.04996 0.590305,1.57471 0.1936,1.13714 0.0464,2.13245 -0.13823,2.85994 -0.407017,1.68514 -1.048848,2.65457 -1.472717,2.56834 -0.442125,-0.0899 -0.584492,-1.20001 -0.670903,-2.77708 -0.04564,-0.67136 -0.06871,-1.49797 -0.253231,-2.09429 -0.08983,-0.2676 -0.198034,-0.54053 -0.32438,-0.76818 -0.12516,-0.22551 -0.264377,-0.4006 -0.426052,-0.50872 -0.169719,-0.14021 -0.383648,-0.24579 -0.592009,-0.30203 -0.235565,-0.0651 -0.49786,-0.0724 -0.733443,-0.036 -0.293405,0.0441 -0.575368,0.16531 -0.807704,0.30456 0,0 0,0 0,0 -0.517349,0.30827 -0.840545,0.7467 -1.136763,0.70266 z"
       id="path3847"
       inkscape:connector-curvature="0"
       inkscape:path-effect="#path-effect3849;#path-effect3851"
       inkscape:original-d="m 93.677968,162.02889 c 1.336612,-0.57935 2.672961,-1.15843 4.009043,-1.73726 1.336083,-0.57881 0.891165,3.0288 1.336347,4.54359 0.445186,1.51479 -0.267004,1.78154 -0.400904,2.6727" />
    <path
       style="fill:#ff0000;stroke:none;stroke-width:0.26458332px;stroke-linecap:butt;stroke-linejoin:miter;stroke-opacity:1"
       d="m 103.29967,163.2316 c 0.10116,-0.30433 1.2002,-0.16252 2.35034,-0.83704 0,0 0,0 0,0 0.5206,-0.30246 1.06321,-0.80682 1.37095,-1.4714 0.10072,-0.23912 0.17878,-0.45916 0.16031,-0.61493 -0.0221,-0.13257 -0.0467,-0.25253 -0.0867,-0.2388 -0.007,-0.006 -0.0659,-0.022 -0.12042,-0.0379 -0.059,-0.0183 -0.16187,-0.008 -0.27721,0.0111 0,0 0,0 0,0 -0.23728,0.0151 -0.52972,0.25344 -0.89935,0.55468 -0.0735,0.0708 -0.14548,0.14421 -0.21544,0.22007 -0.63061,0.6837 -1.03711,1.48856 -1.08322,2.24335 -0.0395,0.46559 0.0226,0.923 0.17613,1.30849 0.17012,0.43161 0.44592,0.80284 0.76393,1.05553 0.43665,0.35723 0.99216,0.52491 1.46156,0.55861 0,0 0,0 0,0 1.05447,0.0808 1.80366,-0.41015 2.0118,-0.21266 0.0714,0.0677 0.0223,1.25171 -1.80842,1.73804 0,0 0,0 0,0 -0.74815,0.19638 -1.74675,0.18775 -2.7363,-0.32301 -0.70698,-0.37078 -1.35801,-0.9695 -1.79902,-1.78005 -0.39076,-0.72048 -0.61057,-1.56154 -0.59541,-2.44711 0.0428,-1.44501 0.62995,-2.86252 1.6757,-3.96032 0.11593,-0.1217 0.23614,-0.23796 0.36013,-0.34858 0.55351,-0.54642 1.32139,-0.9895 2.26258,-1.16985 0,0 0,0 0,0 0.49513,-0.0819 1.01749,-0.0364 1.52629,0.13913 0.53275,0.18464 0.99187,0.5405 1.32861,1.02403 0.40509,0.64907 0.51487,1.32727 0.41311,1.92257 -0.1032,0.61784 -0.33559,1.11698 -0.60678,1.50002 -0.7436,1.09509 -1.78612,1.68325 -2.6951,1.91131 0,0 0,0 0,0 -2.19475,0.54445 -2.9714,-0.64492 -2.93805,-0.74525 z"
       id="path3853"
       inkscape:connector-curvature="0"
       inkscape:path-effect="#path-effect3855;#path-effect3857"
       inkscape:original-d="m 103.29967,163.2316 c -0.5348,1.20298 3.11841,-1.15843 4.67722,-1.73725 1.55881,-0.57882 0.0893,-1.4257 0.13363,-2.13816 0.0443,-0.71245 -2.13789,0.17792 -3.20723,0.26727 -1.06935,0.0893 2.6e-4,4.45423 0,6.68175 -2.7e-4,2.22751 2.67296,-0.35663 4.00904,-0.53454" />
    <path
       style="fill:#ff0000;stroke:none;stroke-width:0.26458332px;stroke-linecap:butt;stroke-linejoin:miter;stroke-opacity:1"
       d="m 112.38683,167.50792 c -0.72595,-0.0207 -1.27081,-3.948 -0.53914,-8.79437 0.0967,-0.64041 0.20972,-1.2604 0.33574,-1.85528 0.0762,-0.37942 0.17694,-0.79818 0.34818,-1.24769 0.17721,-0.48371 0.47798,-0.95075 0.89187,-1.34961 0,0 0,0 0,0 0.48897,-0.44915 1.07135,-0.68725 1.64053,-0.75102 0.65289,-0.0704 1.23654,0.0932 1.68759,0.36254 0.56541,0.34046 0.88553,0.82271 1.03283,1.24242 0,0 0,0 0,0 0.35808,1.02969 -0.18004,1.44661 -0.31947,1.43495 -0.23913,-0.02 -0.41502,-0.4665 -0.81878,-0.76983 0,0 0,0 0,0 -0.17561,-0.13342 -0.40857,-0.24937 -0.64284,-0.27498 -0.18315,-0.0218 -0.39388,0.004 -0.55577,0.0837 -0.14019,0.0667 -0.27913,0.1832 -0.35561,0.31002 0,0 0,0 0,0 -0.082,0.10654 -0.13743,0.28921 -0.21002,0.5264 -0.0647,0.23194 -0.0966,0.5153 -0.15355,0.88534 -0.0824,0.577 -0.17189,1.18446 -0.26452,1.79799 -0.69414,4.59788 -1.35072,8.42014 -2.07704,8.3994 z"
       id="path3867"
       inkscape:connector-curvature="0"
       inkscape:path-effect="#path-effect3869;#path-effect3871"
       inkscape:original-d="m 112.38683,167.50792 c 0.35663,-3.47478 0.71299,-6.94928 1.06908,-10.42352 0.3561,-3.47424 0.53481,-1.33661 0.80181,-2.00452 0.26701,-0.66791 2.13842,0.97972 3.20724,1.46998" />
    <path
       style="fill:#ff0000;stroke:none;stroke-width:0.26458332px;stroke-linecap:butt;stroke-linejoin:miter;stroke-opacity:1"
       d="m 112.52047,159.62346 c 0.0304,-0.72962 0.7735,-1.29183 1.65869,-1.25495 0.8852,0.0369 1.57895,0.65897 1.54855,1.38859 -0.0304,0.72962 -0.7735,1.29183 -1.6587,1.25495 -0.88519,-0.0369 -1.57894,-0.65897 -1.54854,-1.38859 z"
       id="path3879"
       inkscape:connector-curvature="0"
       inkscape:path-effect="#path-effect3881;#path-effect3883"
       inkscape:original-d="m 112.52047,159.62346 c 1.06934,0.0443 2.13842,0.0888 3.20723,0.13364" />
  </g>
</svg>
